<svg width="256" height="256" viewBox="0 0 256 256" fill="none" xmlns="http://www.w3.org/2000/svg">
  <rect x="12" y="12" width="232" height="232" rx="58" fill="#0D1014"/>
  <path d="M61 67H98" stroke="#F3F5F7" stroke-width="18" stroke-linecap="round"/>
  <path d="M61 67V104" stroke="#F3F5F7" stroke-width="18" stroke-linecap="round"/>
  <path d="M195 67H158" stroke="#F3F5F7" stroke-width="18" stroke-linecap="round"/>
  <path d="M195 67V104" stroke="#F3F5F7" stroke-width="18" stroke-linecap="round"/>
  <path d="M61 189H98" stroke="#F3F5F7" stroke-width="18" stroke-linecap="round"/>
  <path d="M61 189V152" stroke="#F3F5F7" stroke-width="18" stroke-linecap="round"/>
  <path d="M195 189H158" stroke="#F3F5F7" stroke-width="18" stroke-linecap="round"/>
  <path d="M195 189V152" stroke="#F3F5F7" stroke-width="18" stroke-linecap="round"/>
  <path d="M129 127C129 117.059 137.059 109 147 109H181C190.941 109 199 117.059 199 127V140C199 149.941 190.941 158 181 158H160.4L147.8 173.4C145.652 176.024 141.415 174.505 141.415 171.113V158H147C137.059 158 129 149.941 129 140V127Z" fill="#F3F5F7"/>
</svg>
